# File created by Blade
# Date/Time:  Tue Sep 30 19:06:46 2014
#---------------------------------------------------------
:version 1.10
:name HOM
:units
  mass 1.0
  length 1.000000
  angle deg
:documentation
     Acclaim Skeleton File
:root
   axis xyz
   order TX TY TZ RX RY RZ
   position 0.000000 0.000000 0.000000
   orientation 0 0 0
:bonedata
   begin
      id 1
      name Spine_dum
      direction 0.000000 1.000000 0.000000
      length 7.508948
      axis 0.0 0.0 0.0 xyz
   end
   begin
      id 2
      name LeftUpLeg_dum
      direction 1.000000 0.000000 0.000000
      length 3.000560
      axis 0.0 0.0 0.0 xyz
   end
   begin
      id 3
      name RightUpLeg_dum
      direction -1.000000 0.000000 0.000000
      length 3.000560
      axis 0.0 0.0 0.0 xyz
   end
   begin
      id 4
      name Spine
      direction 0.000000 1.000000 0.000000
      length 0.000000
      axis 0.0 0.0 0.0 xyz
      dof rx ry rz
   end
   begin
      id 5
      name Spine_dum1
      direction 0.000000 1.000000 0.000000
      length 13.861154
      axis 0.0 0.0 0.0 xyz
   end
   begin
      id 6
      name Spine_dum2
      direction 0.000000 1.000000 0.000000
      length 8.204781
      axis 0.0 0.0 0.0 xyz
   end
   begin
      id 7
      name Spine_dum3
      direction 0.000000 1.000000 0.000000
      length 8.204781
      axis 0.0 0.0 0.0 xyz
   end
   begin
      id 8
      name Head
      direction 0.000000 1.000000 0.000000
      length 4.527550
      axis 0.0 0.0 0.0 xyz
      dof rx ry rz
   end
   begin
      id 9
      name LeftShoulder
      direction 1.000000 0.000000 0.000000
      length 6.635956
      axis 0.0 0.0 -90.0 xyz
      dof rx ry rz
   end
   begin
      id 10
      name LeftArm
      direction 1.000000 0.000000 0.000000
      length 10.274218
      axis 0.0 0.0 -90.0 xyz
      dof rx ry rz
   end
   begin
      id 11
      name LeftForeArm
      direction 1.000000 0.000000 0.000000
      length 8.522147
      axis 0.0 0.0 -90.0 xyz
      dof ry rz rx
   end
   begin
      id 12
      name LeftHand
      direction 0.000000 0.000000 0.000000
      length 0.000000
      axis 0.0 0.0 -90.0 xyz
      dof rx ry rz
   end
   begin
      id 13
      name LeftHand_dum1
      direction 0.000000 0.000000 0.000000
      length 0.000000
      axis 0.0 0.0 -90.0 xyz
   end
   begin
      id 14
      name LeftHand_dum2
      direction 1.000000 0.000000 0.000000
      length 3.937000
      axis 0.0 0.0 -90.0 xyz
   end
   begin
      id 15
      name LeftHandThumb1
      direction 0.000000 0.000000 1.000000
      length 3.937000
      axis 0.0 0.0 -90.0 xyz
      dof rx rz ry
   end
   begin
      id 16
      name RightShoulder
      direction -1.000000 0.000000 0.000000
      length 6.635956
      axis 0.0 0.0 90.0 xyz
      dof rx ry rz
   end
   begin
      id 17
      name RightArm
      direction -1.000000 0.000000 0.000000
      length 10.274218
      axis 0.0 0.0 90.0 xyz
      dof rx ry rz
   end
   begin
      id 18
      name RightForeArm
      direction -1.000000 0.000000 0.000000
      length 8.522147
      axis 0.0 0.0 90.0 xyz
      dof ry rz rx
   end
   begin
      id 19
      name RightHand
      direction 0.000000 0.000000 0.000000
      length 0.000000
      axis 0.0 0.0 90.0 xyz
      dof rx ry rz
   end
   begin
      id 20
      name RightHand_dum1
      direction 0.000000 0.000000 0.000000
      length 0.000000
      axis 0.0 0.0 90.0 xyz
   end
   begin
      id 21
      name RightHand_dum2
      direction -1.000000 0.000000 0.000000
      length 3.937000
      axis 0.0 0.0 90.0 xyz
   end
   begin
      id 22
      name RightHandThumb1
      direction 0.000000 0.000000 1.000000
      length 3.937000
      axis 0.0 0.0 90.0 xyz
      dof rx rz ry
   end
   begin
      id 23
      name LeftUpLeg
      direction 0.000000 -1.000000 0.000000
      length 16.490845
      axis 0.0 0.0 0.0 xyz
      dof rx ry rz
   end
   begin
      id 24
      name LeftLeg
      direction 0.000000 -1.000000 0.000000
      length 14.556576
      axis 0.0 0.0 0.0 xyz
      dof rx ry rz
   end
   begin
      id 25
      name LeftFoot
      direction 0.000000 -0.258819 0.965926
      length 4.831116
      axis 15.0 0.0 0.0 xyz
      dof rx ry rz
   end
   begin
      id 26
      name LeftToeBase
      direction 0.000000 0.000000 1.000000
      length 2.952750
      axis 0.0 0.0 0.0 xyz
      dof rx ry rz
   end
   begin
      id 27
      name RightUpLeg
      direction 0.000000 -1.000000 0.000000
      length 16.490845
      axis 0.0 0.0 0.0 xyz
      dof rx ry rz
   end
   begin
      id 28
      name RightLeg
      direction 0.000000 -1.000000 0.000000
      length 14.556576
      axis 0.0 0.0 0.0 xyz
      dof rx ry rz
   end
   begin
      id 29
      name RightFoot
      direction 0.000000 -0.258819 0.965926
      length 4.831116
      axis 15.0 0.0 0.0 xyz
      dof rx ry rz
   end
   begin
      id 30
      name RightToeBase
      direction 0.000000 0.000000 1.000000
      length 2.952750
      axis 0.0 0.0 0.0 xyz
      dof rx ry rz
   end
:hierarchy
   begin
      root Spine_dum LeftUpLeg_dum RightUpLeg_dum
      Spine_dum Spine
      LeftUpLeg_dum LeftUpLeg
      RightUpLeg_dum RightUpLeg
      Spine Spine_dum1 Spine_dum2 Spine_dum3
      Spine_dum1 Head
      Spine_dum2 LeftShoulder
      Spine_dum3 RightShoulder
      LeftShoulder LeftArm
      LeftArm LeftForeArm
      LeftForeArm LeftHand
      LeftHand LeftHand_dum1 LeftHand_dum2
      LeftHand_dum1 LeftHandThumb1
      RightShoulder RightArm
      RightArm RightForeArm
      RightForeArm RightHand
      RightHand RightHand_dum1 RightHand_dum2
      RightHand_dum1 RightHandThumb1
      LeftUpLeg LeftLeg
      LeftLeg LeftFoot
      LeftFoot LeftToeBase
      RightUpLeg RightLeg
      RightLeg RightFoot
      RightFoot RightToeBase
   end

# File created by Blade
# Date/Time:  Thu Sep 25 18:58:07 2014
# Frame Rate: 120.000 fps
#------------------------------------------------------
:FULLY-SPECIFIED
:DEGREES
98
root 0.613019 32.887033 1.481868 8.484041 3.974675 -0.395603
Spine -9.582858 3.285112 -0.193835
Head -1.057210 -3.468141 10.369914
LeftShoulder -14.330476 14.223228 25.176082
LeftArm 16.747506 -26.329901 -30.431261
LeftForeArm 12.770087 -0.000000 14.495148
LeftHand -24.605625 -0.000000 -12.011889
LeftHandThumb1 -26.253704 0.000000 33.147579
RightShoulder -20.907101 15.117747 -35.796897
RightArm -10.125354 9.083294 30.057906
RightForeArm -29.768146 -0.000000 14.966352
RightHand -7.843087 0.000000 17.287997
RightHandThumb1 -24.326973 -0.000000 -32.862282
LeftUpLeg -3.335050 12.250007 4.729043
LeftLeg -1.978721 -0.000000 0.000000
LeftFoot -5.868383 -2.850240 -17.107263
LeftToeBase 10.352359 -0.000000 -0.000000
RightUpLeg -2.441642 -11.236138 -3.936434
RightLeg 0.539509 -0.000000 -0.000000
RightFoot -6.316366 -4.717840 3.723161
RightToeBase -0.419362 -0.000000 0.000000
99
root 0.613972 32.887620 1.484418 8.503188 3.892533 -0.393179
Spine -9.598314 3.225779 -0.188720
Head -1.078627 -3.541700 10.411801
LeftShoulder -14.325672 14.226727 25.210187
LeftArm 16.667192 -26.402536 -30.448418
LeftForeArm 12.810504 -0.000000 14.479867
LeftHand -24.597603 0.000000 -12.077422
LeftHandThumb1 -26.253704 0.000000 33.147579
RightShoulder -20.937600 15.055333 -35.804092
RightArm -10.123386 9.050281 30.039981
RightForeArm -29.884473 -0.000000 14.916368
RightHand -7.642404 -0.000000 17.295757
RightHandThumb1 -24.326973 -0.000000 -32.862282
LeftUpLeg -3.338414 12.332458 4.713173
LeftLeg -1.970633 -0.000000 0.000000
LeftFoot -5.870317 -2.845684 -17.110938
LeftToeBase 10.323411 -0.000000 -0.000000
RightUpLeg -2.472786 -11.207056 -3.949850
RightLeg 0.542542 -0.000000 -0.000000
RightFoot -6.296823 -4.623059 3.690909
RightToeBase -0.471102 -0.000000 0.000000
100
root 0.616173 32.888716 1.482933 8.536571 3.766432 -0.390567
Spine -9.618310 3.192345 -0.169804
Head -1.106735 -3.624284 10.419875
LeftShoulder -14.315897 14.226774 25.208454
LeftArm 16.558596 -26.371632 -30.380105
LeftForeArm 12.648987 -0.000000 14.433996
LeftHand -24.584821 0.000000 -12.085998
LeftHandThumb1 -26.253704 0.000000 33.147579
RightShoulder -20.967337 15.010024 -35.810187
RightArm -10.122683 8.948526 30.006786
RightForeArm -29.785862 -0.000000 14.954004
RightHand -7.744759 -0.000000 17.247955
RightHandThumb1 -24.326973 -0.000000 -32.862282
LeftUpLeg -3.357430 12.439489 4.683905
LeftLeg -1.956647 -0.000000 0.000000
LeftFoot -5.893117 -2.820878 -17.130457
LeftToeBase 10.359917 -0.000000 -0.000000
RightUpLeg -2.540528 -11.095502 -3.968407
RightLeg 0.560414 -0.000000 -0.000000
RightFoot -6.272083 -4.578447 3.665086
RightToeBase -0.503316 -0.000000 0.000000
101
root 0.617559 32.889614 1.483537 8.551457 3.617153 -0.392674
Spine -9.618197 3.165155 -0.149357
Head -1.137576 -3.680737 10.424879
LeftShoulder -14.313328 14.208579 25.220147
LeftArm 16.460635 -26.413392 -30.359457
LeftForeArm 12.638663 -0.000000 14.375785
LeftHand -24.576125 -0.000000 -12.089742
LeftHandThumb1 -26.253704 0.000000 33.147579
RightShoulder -21.036782 14.924788 -35.869874
RightArm -10.027010 9.029628 30.048169
RightForeArm -29.805957 -0.000000 14.845423
RightHand -7.661924 -0.000000 17.330697
RightHandThumb1 -24.326973 -0.000000 -32.862282
LeftUpLeg -3.349865 12.567486 4.665375
LeftLeg -1.942364 -0.000000 0.000000
LeftFoot -5.919308 -2.794002 -17.121516
LeftToeBase 10.352132 -0.000000 -0.000000
RightUpLeg -2.581317 -10.954567 -3.991279
RightLeg 0.559463 -0.000000 -0.000000
RightFoot -6.247606 -4.516519 3.693719
RightToeBase -0.503519 -0.000000 0.000000
102
root 0.616472 32.890187 1.484759 8.572058 3.438190 -0.422091
Spine -9.634378 3.157266 -0.115008
Head -1.153467 -3.728865 10.479725
LeftShoulder -14.315465 14.223730 25.246602
LeftArm 16.348075 -26.568872 -30.402989
LeftForeArm 12.713614 -0.000000 14.454953
LeftHand -24.643302 -0.000000 -12.069878
LeftHandThumb1 -26.253704 0.000000 33.147579
RightShoulder -21.070373 14.864541 -35.913105
RightArm -10.054525 9.049656 30.055316
RightForeArm -29.930119 -0.000000 14.928239
RightHand -7.779674 0.000000 17.337413
RightHandThumb1 -24.326973 -0.000000 -32.862282
LeftUpLeg -3.338505 12.718141 4.674331
LeftLeg -1.939237 -0.000000 0.000000
LeftFoot -5.939864 -2.772328 -17.145171
LeftToeBase 10.344707 -0.000000 -0.000000
RightUpLeg -2.655215 -10.753001 -3.989641
RightLeg 0.607179 -0.000000 -0.000000
RightFoot -6.237708 -4.455324 3.739431
RightToeBase -0.537731 -0.000000 0.000000
103
root 0.617171 32.890867 1.488447 8.572825 3.252719 -0.431274
Spine -9.625375 3.133245 -0.092247
Head -1.171398 -3.794647 10.507836
LeftShoulder -14.333288 14.263355 25.248773
LeftArm 16.284639 -26.638841 -30.386637
LeftForeArm 12.666729 -0.000000 14.409993
LeftHand -24.566834 -0.000000 -12.120159
LeftHandThumb1 -26.253704 0.000000 33.147579
RightShoulder -21.102260 14.780542 -35.904654
RightArm -10.035779 9.000479 30.034880
RightForeArm -29.709645 -0.000000 14.966509
RightHand -7.625857 -0.000000 17.303594
RightHandThumb1 -24.326973 -0.000000 -32.862282
LeftUpLeg -3.294948 12.826905 4.667549
LeftLeg -1.945873 -0.000000 0.000000
LeftFoot -5.984010 -2.698841 -17.157999
LeftToeBase 10.380235 -0.000000 -0.000000
RightUpLeg -2.687808 -10.616255 -4.007227
RightLeg 0.616617 -0.000000 -0.000000
RightFoot -6.208808 -4.385472 3.731903
RightToeBase -0.584618 -0.000000 0.000000
104
root 0.618916 32.891711 1.490672 8.585000 3.030565 -0.441689
Spine -9.624136 3.134246 -0.072294
Head -1.210522 -3.871798 10.558003
LeftShoulder -14.363052 14.265254 25.272325
LeftArm 16.215753 -26.636173 -30.382929
LeftForeArm 12.666481 -0.000000 14.381001
LeftHand -24.641852 -0.000000 -12.071807
LeftHandThumb1 -26.253704 0.000000 33.147579
RightShoulder -21.147314 14.726201 -35.951262
RightArm -10.051699 9.115795 30.020267
RightForeArm -29.840587 -0.000000 15.010982
RightHand -7.528312 -0.000000 17.403198
RightHandThumb1 -24.326973 -0.000000 -32.862282
LeftUpLeg -3.259615 12.929235 4.657166
LeftLeg -1.945917 -0.000000 0.000000
LeftFoot -6.037658 -2.597469 -17.224715
LeftToeBase 10.429103 -0.000000 -0.000000
RightUpLeg -2.737542 -10.443841 -4.027155
RightLeg 0.616686 -0.000000 -0.000000
RightFoot -6.171380 -4.301847 3.714221
RightToeBase -0.627093 -0.000000 0.000000
105
root 0.620160 32.892406 1.489757 8.619565 2.794572 -0.465296
Spine -9.643900 3.104044 -0.022990
Head -1.247753 -3.919261 10.567178
LeftShoulder -14.332735 14.051914 25.316731
LeftArm 15.934904 -26.507837 -30.243896
LeftForeArm 12.674160 0.000000 14.291686
LeftHand -24.581630 0.000000 -12.102665
LeftHandThumb1 -26.253704 0.000000 33.147579
RightShoulder -21.157340 14.761106 -36.073595
RightArm -10.140515 9.146605 30.047685
RightForeArm -29.906014 -0.000000 15.035048
RightHand -7.500106 -0.000000 17.365786
RightHandThumb1 -24.326973 -0.000000 -32.862282
LeftUpLeg -3.252080 13.053563 4.651595
LeftLeg -1.944967 -0.000000 0.000000
LeftFoot -6.098564 -2.483137 -17.228284
LeftToeBase 10.423697 -0.000000 -0.000000
RightUpLeg -2.827030 -10.280994 -4.027204
RightLeg 0.635675 -0.000000 -0.000000
RightFoot -6.134983 -4.217799 3.679606
RightToeBase -0.683133 -0.000000 0.000000
106
root 0.624298 32.892583 1.490061 8.648167 2.513564 -0.477027
Spine -9.657990 3.118895 0.004746
Head -1.295850 -4.017810 10.591401
LeftShoulder -14.383759 14.089115 25.351798
LeftArm 15.859966 -26.466099 -30.262983
LeftForeArm 12.601140 -0.000000 14.316194
LeftHand -24.624084 -0.000000 -11.992240
LeftHandThumb1 -26.253704 0.000000 33.147579
RightShoulder -21.169637 14.718085 -36.095505
RightArm -10.179927 9.155356 30.002269
RightForeArm -29.819798 -0.000000 15.100616
RightHand -7.520509 -0.000000 17.285183
RightHandThumb1 -24.326973 -0.000000 -32.862282
LeftUpLeg -3.222914 13.191936 4.628972
LeftLeg -1.940592 -0.000000 0.000000
LeftFoot -6.121663 -2.376491 -17.093847
LeftToeBase 10.147038 -0.000000 -0.000000
RightUpLeg -2.908009 -10.059388 -4.050842
RightLeg 0.641828 -0.000000 -0.000000
RightFoot -6.107165 -4.151219 3.687515
RightToeBase -0.682332 -0.000000 0.000000
107
root 0.626726 32.893292 1.491983 8.679788 2.201455 -0.491779
Spine -9.683863 3.176825 -0.000759
Head -1.338120 -4.145844 10.690942
LeftShoulder -14.347274 13.962868 25.449579
LeftArm 15.684954 -26.460171 -30.248961
LeftForeArm 12.762279 -0.000000 14.284604
LeftHand -24.641663 -0.000000 -11.980033
LeftHandThumb1 -26.253704 0.000000 33.147579
RightShoulder -21.232263 14.654338 -36.149339
RightArm -10.196378 9.081823 30.016728
RightForeArm -29.714742 -0.000000 15.079649
RightHand -7.413364 -0.000000 17.149601
RightHandThumb1 -24.326973 -0.000000 -32.862282
LeftUpLeg -3.183256 13.422236 4.606970
LeftLeg -1.968169 -0.000000 0.000000
LeftFoot -6.201304 -2.289527 -17.306641
LeftToeBase 10.443044 -0.000000 -0.000000
RightUpLeg -3.005543 -9.850057 -4.066474
RightLeg 0.667549 -0.000000 -0.000000
RightFoot -6.075365 -4.058303 3.617326
RightToeBase -0.710179 -0.000000 0.000000
108
root 0.626198 32.892983 1.492614 8.698160 1.890404 -0.506127
Spine -9.677130 3.145059 0.019254
Head -1.414725 -4.214751 10.747980
LeftShoulder -14.446912 14.051221 25.435863
LeftArm 15.664578 -26.421372 -30.180937
LeftForeArm 12.705155 -0.000000 14.181956
LeftHand -24.473608 -0.000000 -11.953052
LeftHandThumb1 -26.253704 0.000000 33.147579
RightShoulder -21.214181 14.651751 -36.167565
RightArm -10.278914 9.242058 29.982550
RightForeArm -29.838400 -0.000000 15.192352
RightHand -7.478297 0.000000 17.125186
RightHandThumb1 -24.326973 -0.000000 -32.862282
LeftUpLeg -3.135237 13.652696 4.588798
LeftLeg -1.987406 -0.000000 0.000000
LeftFoot -6.235339 -2.208605 -17.323261
LeftToeBase 10.396715 -0.000000 -0.000000
RightUpLeg -3.079547 -9.627199 -4.083444
RightLeg 0.670687 -0.000000 -0.000000
RightFoot -6.050844 -3.973344 3.565335
RightToeBase -0.743684 -0.000000 0.000000
109
root 0.624719 32.893694 1.494102 8.701091 1.606179 -0.529881
Spine -9.652339 3.115058 0.047881
Head -1.485363 -4.319455 10.818990
LeftShoulder -14.485462 14.328075 25.319421
LeftArm 15.697605 -26.669473 -30.098219
LeftForeArm 12.707614 -0.000000 14.184592
LeftHand -24.490568 -0.000000 -12.156880
LeftHandThumb1 -26.253704 0.000000 33.147579
RightShoulder -21.202727 14.391747 -36.092540
RightArm -10.180733 9.470655 29.967113
RightForeArm -29.720496 0.000000 15.167856
RightHand -7.537191 -0.000000 17.054285
RightHandThumb1 -24.326973 -0.000000 -32.862282
LeftUpLeg -3.077855 13.859188 4.591008
LeftLeg -1.997482 -0.000000 0.000000
LeftFoot -6.271799 -2.157418 -17.399023
LeftToeBase 10.399232 -0.000000 -0.000000
RightUpLeg -3.125284 -9.468635 -4.086760
RightLeg 0.657077 -0.000000 -0.000000
RightFoot -5.998944 -3.842597 3.531638
RightToeBase -0.801902 -0.000000 0.000000
